<?xml version="1.0" encoding="UTF-8"?>
<svg width="374px" height="40px" viewBox="0 0 374 40" version="1.1" xmlns="http://www.w3.org/2000/svg" xmlns:xlink="http://www.w3.org/1999/xlink">
    <!-- Generator: Sketch 49.2 (51160) - http://www.bohemiancoding.com/sketch -->
    <title>Fill 1 Copy</title>
    <desc>Created with Sketch.</desc>
    <defs></defs>
    <g id="Home" stroke="none" stroke-width="1" fill="none" fill-rule="evenodd">
        <g id="Home-(1440px)" transform="translate(-533.000000, -492.000000)" fill="#475059">
            <g id="Opening">
                <path d="M880.584102,511.673681 L880.584102,525.151888 C880.584102,527.380029 881.99608,529.227876 885.254273,529.227876 C887.208343,529.227876 889.000279,528.630272 890.032299,528.140617 L890.249418,528.521616 C888.945999,529.988464 886.339867,531.891345 882.91954,531.891345 C877.97797,531.891345 876.294594,528.6846 876.294594,526.239148 L876.294594,511.673681 L873.308504,511.673681 L873.308504,511.287037 L880.196389,504.206798 L880.584102,504.206798 L880.584102,509.228229 L891.335717,509.228229 L889.7609,511.673681 L880.584102,511.673681 Z M818.371782,511.673681 L818.371782,525.151888 C818.371782,527.380029 819.783759,529.227876 823.041248,529.227876 C824.996728,529.227876 826.787959,528.630272 827.819274,528.140617 L828.037097,528.521616 C826.733679,529.988464 824.127547,531.891345 820.706515,531.891345 C815.76565,531.891345 814.081568,528.6846 814.081568,526.239148 L814.081568,511.673681 L811.095479,511.673681 L811.095479,511.287037 L817.983364,504.206798 L818.371782,504.206798 L818.371782,509.228229 L829.123397,509.228229 L827.54858,511.673681 L818.371782,511.673681 Z M707.484646,514.445805 L711.991273,502.651756 L716.932843,514.445805 L707.484646,514.445805 Z M728.067941,529.081827 L713.56609,494.663468 L712.969013,494.663468 L699.700087,529.081827 L696.995265,531.015046 L696.995265,531.40169 L704.55777,531.40169 L704.55777,531.015046 L701.853653,529.081827 L706.778305,516.239324 L717.692759,516.239324 L723.062927,529.081827 L720.358105,531.015046 L720.358105,531.40169 L730.772058,531.40169 L730.772058,531.015046 L728.067941,529.081827 Z M905.262344,509.282557 L905.262344,513.577973 L904.876041,513.577973 C904.008271,512.180975 902.656212,510.315489 900.049375,510.315489 C898.474558,510.315489 897.117565,511.184732 897.117565,513.086907 C897.117565,515.206392 898.583118,516.075635 901.13497,517.65255 C904.013205,519.554019 907,521.238883 907,525.206216 C907,529.119221 904.067485,531.945672 899.235179,531.945672 C896.465504,531.945672 894.077196,531.130757 893.045176,530.641102 L893.035307,524.53735 L893.421609,524.53735 C894.290085,527.255146 896.414749,530.097825 899.397314,530.097825 C901.569913,530.097825 903.199009,528.630272 903.199009,526.456458 C903.199009,524.064629 901.514928,523.032403 898.637398,521.293211 C895.922706,519.554019 893.533693,517.7605 893.533693,514.282116 C893.533693,510.641455 896.574768,508.576297 900.429333,508.576297 C902.981185,508.576297 904.664562,509.065246 905.262344,509.282557 Z M649.987613,521.456194 C647.761439,522.216782 642.820574,523.902351 642.494191,524.064629 C642.222792,524.227612 642.005673,524.88025 642.005673,525.695871 C642.005673,527.48939 643.363371,529.173549 645.969503,529.173549 C647.869999,529.173549 649.281976,528.412961 649.933333,527.924012 C649.933333,525.913182 649.987613,523.79299 649.987613,521.456194 Z M646.133047,510.804438 C644.123993,510.804438 642.983413,512.053975 642.603455,512.488596 L642.603455,515.022948 L638.756644,514.120544 L638.756644,513.7339 C640.759354,511.603831 643.544539,508.358281 648.195677,508.358281 C652.105227,508.358281 654.223546,510.913093 654.223546,513.575856 C654.223546,516.999912 654.006427,527.181063 654.006427,528.022789 C654.764229,529.010566 656.888187,529.584887 657.742564,529.799376 L657.742564,530.182492 L653.788603,531.945672 C652.719222,531.498351 651.033026,530.679202 650.150452,529.227876 C648.793459,530.31443 646.295887,531.945672 644.395391,531.945672 C640.485136,531.945672 637.987564,529.499515 637.987564,526.456458 C637.987564,524.336973 639.182423,523.032403 639.996619,522.760764 C640.75724,522.434798 645.101028,521.238883 649.987613,519.662674 L649.987613,515.097737 C649.987613,512.652285 648.793459,510.804438 646.133047,510.804438 Z M748.688597,509.010918 L747.27662,513.141234 C746.678838,512.923924 745.593243,512.434974 744.344105,512.434974 C743.095671,512.434974 741.031631,513.086907 739.348255,514.55446 L739.348255,529.081827 L742.053077,531.015046 L742.053077,531.40169 L732.35463,531.40169 L732.35463,531.015046 L735.059452,529.081827 L735.059452,512.760941 L732.018377,511.184732 L732.018377,510.804438 C732.072657,510.804438 735.602249,509.391212 739.348255,508.358281 L739.348255,513.141234 C742.661433,509.608523 744.561223,508.412608 745.593243,508.412608 C746.733117,508.412608 748.090816,508.847935 748.688597,509.010918 Z M636.804689,509.010918 L635.393416,513.141234 C634.795634,512.923924 633.710039,512.434974 632.460901,512.434974 C631.212467,512.434974 629.148428,513.086907 627.465756,514.55446 L627.465756,529.081827 L630.169873,531.015046 L630.169873,531.40169 L620.471426,531.40169 L620.471426,531.015046 L623.175543,529.081827 L623.175543,512.760941 L620.135173,511.184732 L620.135173,510.804438 C620.189453,510.804438 623.71834,509.391212 627.465756,508.358281 L627.465756,513.141234 C630.777524,509.608523 632.67802,508.412608 633.710039,508.412608 C634.849914,508.412608 636.207612,508.847935 636.804689,509.010918 Z M808.640907,531.015046 L808.640907,531.40169 L798.942459,531.40169 L798.942459,531.015046 L801.646577,529.081827 L801.646577,512.760941 L798.556157,511.160743 L798.556157,510.774099 C798.610437,510.774099 802.190079,509.391212 805.936085,508.358281 L805.936085,529.081827 L808.640907,531.015046 Z M801.0495,499.663027 C801.0495,498.195474 802.081519,497.108214 803.547777,497.108214 C805.01333,497.108214 806.045349,498.195474 806.045349,499.663027 C806.045349,501.13058 805.01333,502.108479 803.547777,502.108479 C802.081519,502.108479 801.0495,501.13058 801.0495,499.663027 Z M795.880237,531.015046 L795.880237,531.40169 L786.181789,531.40169 L786.181789,531.015046 L788.885907,529.081827 L788.885907,515.641014 C788.885907,513.304217 787.20253,511.347715 783.945042,511.347715 C781.501044,511.347715 779.600549,512.706613 778.297131,513.95615 L778.297131,529.081827 L781.001953,531.015046 L781.001953,531.40169 L771.303505,531.40169 L771.303505,531.015046 L774.007622,529.081827 L774.007622,496.619265 L770.804414,494.934401 L770.804414,494.554107 C770.804414,494.554107 774.551124,493.032226 778.297131,492 L778.297131,512.325613 C779.926227,510.804438 782.913022,508.576297 786.388334,508.576297 C790.080061,508.576297 793.175415,511.239059 793.175415,514.282116 L793.175415,529.081827 L795.880237,531.015046 Z M617.717963,531.015046 L617.717963,531.40169 L608.019516,531.40169 L608.019516,531.015046 L610.723633,529.081827 L610.723633,515.695342 C610.723633,513.358545 609.095241,511.347715 605.782768,511.347715 C603.230211,511.347715 601.383995,512.706613 600.135562,513.95615 L600.135562,529.082532 L602.838974,531.015046 L602.838974,531.40169 L593.141231,531.40169 L593.141231,531.015046 L595.846054,529.081827 L595.846054,512.760941 L592.804979,511.184732 L592.804979,510.804438 C592.859259,510.804438 596.388851,509.391212 600.135562,508.358281 L600.135562,512.325613 C601.764658,510.858766 604.750748,508.576297 608.226061,508.576297 C611.864212,508.576297 615.013846,511.130404 615.013846,514.173461 L615.013846,529.081827 L617.717963,531.015046 Z M768.234233,509.44554 L768.234938,514.399944 L767.847931,514.399944 C766.577644,512.76729 764.108269,510.424144 760.740811,510.424144 C756.614847,510.424144 753.845171,514.55446 753.845171,519.228053 C753.845171,525.532182 757.863281,528.90191 763.02197,528.90191 C765.84522,528.90191 767.799995,528.140617 769.266253,527.217046 L769.483372,527.598046 C768.072099,529.60817 765.138879,531.945672 760.578677,531.945672 C754.659367,531.945672 749.609238,527.814651 749.609238,520.641278 C749.609238,514.282116 754.06229,508.576297 761.718551,508.576297 C764.488227,508.576297 767.202918,509.173902 768.234233,509.44554 Z M869.857159,509.44554 L869.857159,514.399944 L869.470857,514.399944 C868.201275,512.76729 865.731195,510.424144 862.363737,510.424144 C858.237068,510.424144 855.468097,514.55446 855.468097,519.228053 C855.468097,525.532182 859.485502,528.90191 864.644895,528.90191 C867.468851,528.90191 869.422921,528.140617 870.889179,527.217046 L871.106298,527.598046 C869.69432,529.60817 866.76251,531.945672 862.201603,531.945672 C856.282293,531.945672 851.232164,527.814651 851.232164,520.641278 C851.232164,514.282116 855.685216,508.576297 863.341477,508.576297 C866.111153,508.576297 868.825139,509.173902 869.857159,509.44554 Z M835.005345,514.391477 L843.801481,514.391477 C843.530082,511.184732 841.357483,510.315489 840.00049,510.315489 C837.991435,510.315489 836.03666,511.619353 835.005345,514.391477 Z M842.824446,528.847583 C845.267033,528.847583 847.222513,528.304306 848.688771,527.706701 L848.90589,528.086995 C847.548192,529.445187 844.127159,531.945672 840.326873,531.945672 C834.407564,531.945672 829.955216,527.760323 829.955216,520.532623 C829.955216,514.173461 834.624682,508.576297 840.217609,508.576297 C845.430577,508.576297 847.385353,512.652285 848.416667,515.96698 L848.416667,516.021308 L834.516123,516.021308 C834.299004,516.999912 834.190445,518.087171 834.190445,519.228053 C834.190445,525.477854 837.882876,528.847583 842.824446,528.847583 Z M578.903025,530.206481 C582.432617,530.206481 585.419412,526.021131 585.419412,520.260985 C585.419412,514.608788 582.486897,510.315489 578.903025,510.315489 C575.428417,510.315489 572.441623,514.608788 572.441623,520.260985 C572.441623,526.076165 575.374138,530.206481 578.903025,530.206481 Z M578.903025,508.576297 C584.984469,508.576297 590.089583,513.24989 590.089583,520.042968 C590.089583,526.89108 584.984469,531.945672 578.903025,531.945672 C572.87586,531.945672 567.771451,527.325702 567.771451,520.532623 C567.771451,513.793167 572.87586,508.576297 578.903025,508.576297 Z M533,513.630184 C533,503.901998 540.276303,494.825746 552.439191,494.825746 C557.271497,494.825746 561.398166,495.80435 563.516485,496.401954 L563.516485,502.119768 L563.130182,502.119768 C560.901894,499.092234 557.509763,496.673593 552.222072,496.673593 C543.533791,496.673593 538.375808,504.282292 538.375808,513.141234 C538.375808,523.141058 544.72865,530.152153 552.60203,530.152153 C558.653162,530.152153 562.260297,526.308998 563.890099,524.308751 L564.276401,524.308751 L564.276401,529.499515 C562.593025,530.369464 558.194957,532 552.439191,532 C541.307618,532 533,524.554284 533,513.630184 Z M675.54279,527.48939 C674.673609,528.358633 672.936658,529.010566 671.4704,529.010566 C667.180892,529.010566 663.814139,525.803821 663.814139,519.988641 C663.814139,514.663115 666.908789,510.369111 671.52468,510.369111 C673.696574,510.369111 675.108552,511.49447 675.54279,511.874764 L675.54279,527.48939 Z M679.832298,528.1639 L679.832298,492 C676.085587,493.032226 671.904638,494.554107 671.904638,494.554107 L671.904638,494.934401 L675.54279,496.619265 L675.54279,509.056779 C674.890728,508.893796 673.262336,508.629919 671.687519,508.629919 C663.542741,508.629919 659.307512,514.771771 659.307512,521.021572 C659.307512,527.108391 664.034078,531.945672 668.843121,531.945672 C671.442908,531.945672 674.185797,530.423791 675.597069,528.847583 L675.597069,531.837017 L683.579009,530.281975 L683.579009,529.894625 L679.832298,528.1639 Z" id="Fill-1-Copy"></path>
            </g>
        </g>
    </g>
</svg>